<?xml version="1.0" encoding="UTF-8"?>
<svg id="b" data-name="Layer 2" xmlns="http://www.w3.org/2000/svg" viewBox="0 0 303.43 72.12">
  <g id="c" data-name="Layer 1">
    <g>
      <path d="m21.06,25.5c-9.17,0-17.32,3.98-17.32,3.98l3.61,9.17s6.76-3.24,13.15-3.24c3.89,0,9.45,1.85,9.45,7.59v2.5s-4.17-3.15-12.22-3.15c-9.54,0-17.22,6.11-17.22,14.54,0,9.35,7.59,14.72,15.84,14.72,9.91,0,14.45-6.67,14.45-6.67v5.56h10.28v-28.62c0-10-7.41-16.39-20-16.39Zm8.89,31.76s-3.52,5.09-10.19,5.09c-3.43,0-7.96-1.02-7.96-5.65s4.72-6.21,8.15-6.21c6.02,0,10,2.22,10,2.22v4.54Z" fill="#fff" stroke="#fff" stroke-miterlimit="10"/>
      <path d="m57.64,5.13c-4.07,0-7.32,3.24-7.32,7.32s3.24,7.32,7.32,7.32,7.32-3.24,7.32-7.32-3.24-7.32-7.32-7.32Z" fill="#fff" stroke="#fff" stroke-miterlimit="10"/>
      <rect x="52.08" y="26.61" width="11.11" height="43.9" fill="#fff" stroke="#fff" stroke-miterlimit="10"/>
      <path d="m101.07,33.65c-8.89-3.33-13.98-5.09-13.98-10.74,0-4.35,4.35-7.78,9.91-7.78,8.06,0,13.43,7.32,13.43,7.32l7.69-7.59s-7.59-10.28-21.11-10.28-21.21,9.17-21.21,18.34c0,12.04,10.74,17.22,20.28,20.56,7.69,2.69,11.85,4.63,11.85,10.09s-5.74,7.5-11.3,7.5c-9.82,0-15.37-9.72-15.37-9.72l-8.33,7.04s7.5,13.24,23.71,13.24c12.22,0,22.6-6.3,22.6-18.06s-8.24-16.21-18.15-19.91Z" fill="#fff" stroke="#fff" stroke-miterlimit="10"/>
      <path d="m147.56,61.25c-2.96,0-5.74-1.57-5.74-6.95v-17.69h13.24v-10h-13.24v-13.06h-11.11v13.06h-8.61v10h8.61v19.45c0,9.35,6.48,15.56,15,15.56,6.39,0,10.56-2.87,10.56-2.87l-4.07-9.08s-2.13,1.57-4.63,1.57Z" fill="#fff" stroke="#fff" stroke-miterlimit="10"/>
      <path d="m182.75,25.5c-13.06,0-23.43,10.09-23.43,23.06s10.37,23.06,23.43,23.06,23.43-10.19,23.43-23.06-10.37-23.06-23.43-23.06Zm0,35.75c-7.5,0-12.13-5.83-12.13-12.69s4.63-12.69,12.13-12.69,12.13,5.83,12.13,12.69-4.63,12.69-12.13,12.69Z" fill="#fff" stroke="#fff" stroke-miterlimit="10"/>
      <path d="m234.99,61.25c-7.5,0-12.32-5.83-12.32-12.69s4.82-12.69,12.32-12.69c6.67,0,10.28,4.63,10.28,4.63l7.69-6.85s-6.2-8.15-17.97-8.15c-13.15,0-23.61,10.09-23.61,23.06s10.46,23.06,23.61,23.06c11.85,0,18.15-8.33,18.15-8.33l-7.32-7.41s-3.33,5.37-10.83,5.37Z" fill="#fff" stroke="#fff" stroke-miterlimit="10"/>
      <polygon points="281.75 47.36 301.02 26.61 286.66 26.61 270.92 43.93 270.92 .5 259.81 .5 259.81 70.51 270.92 70.51 270.92 51.34 287.68 70.51 302.31 70.51 281.75 47.36" fill="#fff" stroke="#fff" stroke-miterlimit="10"/>
    </g>
  </g>
</svg>